<?xml version="1.0" encoding="utf-8"?><svg viewBox="0 0 502.66 502.66" xmlns="http://www.w3.org/2000/svg" xmlns:xlink="http://www.w3.org/1999/xlink"><style>:root>svg{display:none}:root>svg:target{display:block}</style><svg viewBox="0 0 63 63" id="close" xmlns="http://www.w3.org/2000/svg"><path d="M12.01 12.01a3.937 3.937 0 015.567 0L31.5 25.931 45.423 12.01a3.937 3.937 0 015.568 5.568L37.068 31.5 50.99 45.423a3.938 3.938 0 01-5.568 5.568L31.5 37.068 17.577 50.99a3.938 3.938 0 01-5.568-5.568L25.932 31.5 12.01 17.577a3.938 3.938 0 010-5.568z"/></svg><svg viewBox="0 0 48 48" id="filter" xmlns="http://www.w3.org/2000/svg"><path d="M4 10h7.09a6 6 0 0011.82 0H44a1 1 0 000-2H22.91a6 6 0 00-11.82 0H4a1 1 0 000 2zm13-5a4 4 0 11-4 4 4 4 0 014-4zm27 18h-7.09a6 6 0 00-11.82 0H4a1 1 0 000 2h21.09a6 6 0 0011.82 0H44a1 1 0 000-2zm-13 5a4 4 0 114-4 4 4 0 01-4 4zm13 10H22.91a6 6 0 00-11.82 0H4a1 1 0 000 2h7.09a6 6 0 0011.82 0H44a1 1 0 000-2zm-27 5a4 4 0 114-4 4 4 0 01-4 4z" data-name="Layer 15"/></svg><svg viewBox="0 0 502.664 502.664" id="icon" xmlns="http://www.w3.org/2000/svg"><path d="M153.821 358.226L0 274.337v-46.463l153.821-83.414v54.574L46.636 250.523l107.185 53.431v54.272zM180.094 387.584L282.103 115.08h32.227L212.084 387.584h-31.99zM348.843 358.226v-54.272l107.164-52.999-107.164-52.59v-53.927l153.821 83.522v46.183l-153.821 84.083z"/></svg><svg viewBox="0 0 24 24" id="upper-arrow" xmlns="http://www.w3.org/2000/svg"><path d="M12.71 8.29a1 1 0 00-.33-.21 1 1 0 00-.76 0 1 1 0 00-.33.21l-3 3a1 1 0 001.42 1.42l1.29-1.3V15a1 1 0 002 0v-3.59l1.29 1.3a1 1 0 001.42 0 1 1 0 000-1.42zM12 2a10 10 0 1010 10A10 10 0 0012 2zm0 18a8 8 0 118-8 8 8 0 01-8 8z"/></svg></svg>